<svg width="100" height="100" viewBox="0 0 100 100" fill="none" xmlns="http://www.w3.org/2000/svg">
<rect width="100" height="100" fill="#85D175"/>
<mask id="mask0_40_26" style="mask-type:alpha" maskUnits="userSpaceOnUse" x="25" y="25" width="50" height="50">
<rect x="25" y="25" width="50" height="50" fill="white"/>
</mask>
<g mask="url(#mask0_40_26)">
<path fill-rule="evenodd" clip-rule="evenodd" d="M33.3333 61.575V38.425C33.3333 33.4063 40.9667 29.1667 50 29.1667C59.0333 29.1667 66.6667 33.4063 66.6667 38.425V61.575C66.6667 66.5938 59.0354 70.8333 50 70.8333C40.9667 70.8333 33.3333 66.5938 33.3333 61.575ZM37.5 61.5813C37.6458 62.7333 42.3104 66.2104 50 66.2104C57.6896 66.2104 62.3562 62.7229 62.5 61.5688V56.0417C58.7071 58.2404 54.3832 59.3552 50 59.2646C45.6168 59.3553 41.2929 58.2405 37.5 56.0417V61.5813ZM37.5 50C37.6458 51.1521 42.3104 54.6292 50 54.6292C57.6896 54.6292 62.3562 51.1417 62.5 49.9875V44.4604C58.7073 46.66 54.3834 47.7755 50 47.6854C45.6166 47.7756 41.2926 46.6601 37.5 44.4604V50ZM37.5 38.4396C37.6458 39.5833 42.3146 43.0542 50 43.0542C57.6854 43.0542 62.3562 39.5667 62.5 38.4125C62.3542 37.2646 57.6854 33.7958 50 33.7958C42.3083 33.7958 37.6437 37.2833 37.5 38.4396Z" fill="#2E3A59"/>
</g>
</svg>
