<svg width="230" height="140" viewBox="0 0 230 140" fill="none" xmlns="http://www.w3.org/2000/svg">
<path d="M217.87 84.3911C209.742 106.487 194.459 125.845 173.232 134.352C170.471 135.457 167.652 136.394 164.788 137.159C149.643 141.213 133.075 139.803 119.114 132.416C113.188 129.279 107.785 125.133 101.839 122.041C95.8919 118.948 89.101 116.924 82.6285 118.451C77.0555 119.765 72.3536 123.532 67.6195 126.887C56.4593 134.797 43.0402 141.057 29.8251 138.34C23.7442 137.092 17.7563 133.633 14.9322 127.852C8.6904 115.071 20.4623 99.8757 18.0783 85.7411C16.5526 76.6948 9.58465 69.9204 5.25292 61.9369C-2.16037 48.2811 -1.28401 30.1416 7.40806 17.3457C16.1001 4.54985 32.1465 -2.23768 46.8587 0.665082C64.799 4.20624 78.3629 20.1452 95.8079 25.7855C106.718 29.3098 118.563 28.2583 128.983 23.6169C145.818 16.1159 168.946 4.61181 187.892 6.48565C197.966 7.48266 207.848 12.1767 214.497 20.1922C222.903 30.3106 225.423 44.6761 224.021 58.0183C223.059 67.0501 220.991 75.9141 217.87 84.3911Z" fill="url(#paint0_linear_16_357)"/>
<path d="M223.279 101.868C222.905 101.867 222.533 101.82 222.17 101.727C221.022 101.431 220.026 100.686 219.384 99.644C218.741 98.6023 218.502 97.3426 218.715 96.1218C218.926 94.9012 219.575 93.8116 220.526 93.0758C221.478 92.3397 222.662 92.013 223.835 92.1619C225.008 92.311 226.083 92.9246 226.84 93.8777C227.598 94.8306 227.979 96.0508 227.909 97.2895C227.838 98.5281 227.319 99.6917 226.459 100.543C225.599 101.393 224.461 101.867 223.279 101.868ZM223.279 94.3236C222.664 94.3261 222.072 94.5645 221.612 94.9939C221.152 95.4233 220.859 96.014 220.786 96.655C220.714 97.296 220.866 97.9429 221.217 98.4739C221.566 99.0047 222.088 99.3832 222.685 99.5377C223.03 99.6248 223.39 99.6342 223.74 99.5653C224.089 99.4962 224.42 99.3503 224.711 99.1372C225.003 98.9241 225.25 98.6485 225.432 98.3285C225.615 98.0086 225.733 97.6517 225.774 97.281C225.817 96.9106 225.783 96.5347 225.677 96.1785C225.572 95.8223 225.395 95.4937 225.159 95.2143C224.923 94.935 224.635 94.7111 224.309 94.5576C223.985 94.4042 223.635 94.3244 223.279 94.3236Z" fill="#E7F6FF"/>
<path d="M219.046 107.033C219.308 105.891 218.641 104.741 217.554 104.464C216.465 104.188 215.37 104.889 215.105 106.03C214.843 107.172 215.51 108.322 216.599 108.599C217.686 108.876 218.781 108.175 219.046 107.033Z" fill="#E7F6FF"/>
<path d="M9.871 101.404C8.64258 101.376 7.47432 100.84 6.61983 99.9132C5.76536 98.9863 5.29363 97.7429 5.30704 96.453C5.32047 95.1631 5.81796 93.9308 6.69153 93.0237C7.5651 92.1167 8.74422 91.6078 9.97295 91.6078C11.2017 91.6078 12.3808 92.1167 13.2543 93.0237C14.1279 93.9308 14.6254 95.1631 14.6388 96.453C14.6523 97.7429 14.1805 98.9863 13.326 99.9132C12.4716 100.84 11.3033 101.376 10.0749 101.404H9.871ZM9.871 93.8617H9.76548C9.10202 93.8767 8.47101 94.1659 8.00943 94.6665C7.54786 95.167 7.293 95.8386 7.30019 96.5352C7.30738 97.2318 7.57601 97.8974 8.0478 98.3873C8.51958 98.8773 9.15641 99.152 9.82003 99.152C10.4837 99.152 11.1205 98.8773 11.5922 98.3873C12.064 97.8974 12.3327 97.2318 12.3399 96.5352C12.347 95.8386 12.0922 95.167 11.6306 94.6665C11.1691 94.1659 10.538 93.8767 9.87458 93.8617H9.871Z" fill="#E7F6FF"/>
<path d="M6.54391 109.625C7.662 109.574 8.52929 108.581 8.48106 107.408C8.43282 106.234 7.48734 105.323 6.36924 105.374C5.25117 105.425 4.38388 106.417 4.43209 107.591C4.48033 108.765 5.42581 109.675 6.54391 109.625Z" fill="#E7F6FF"/>
<path d="M126.818 22.205C125.705 22.2059 124.628 21.7885 123.782 21.0281C122.936 20.2677 122.378 19.2145 122.208 18.0592C122.038 16.904 122.267 15.723 122.855 14.73C123.442 13.7371 124.349 12.9977 125.411 12.6458C126.473 12.2939 127.62 12.3527 128.644 12.8116C129.668 13.2704 130.502 14.099 130.994 15.1474C131.487 16.1958 131.605 17.3946 131.329 18.5269C131.052 19.6593 130.399 20.6503 129.487 21.3206C128.705 21.8952 127.773 22.2038 126.818 22.205ZM126.804 14.6644C126.153 14.6637 125.526 14.927 125.055 15.3994C124.584 15.8718 124.304 16.5168 124.275 17.2001C124.246 17.8834 124.469 18.5521 124.898 19.0671C125.326 19.582 125.928 19.9032 126.577 19.9639C127.226 20.0245 127.872 19.8198 128.381 19.3927C128.89 18.9655 129.222 18.3487 129.308 17.6707C129.394 16.9928 129.228 16.3061 128.844 15.7537C128.46 15.2013 127.887 14.8259 127.246 14.7058C127.1 14.6785 126.952 14.6647 126.804 14.6644Z" fill="#E7F6FF"/>
<path d="M117.304 21.9372C118.221 21.2626 118.442 19.9361 117.8 18.974C117.157 18.0121 115.894 17.7792 114.977 18.4537C114.061 19.1283 113.839 20.4548 114.482 21.4169C115.124 22.3788 116.388 22.6118 117.304 21.9372Z" fill="#E7F6FF"/>
<path d="M230 47.4399C230 45.3753 229.218 43.3952 227.829 41.9354C226.437 40.4755 224.552 39.6554 222.585 39.6554C222.42 39.6554 222.258 39.6554 222.097 39.6723C222.107 39.5033 222.113 39.3324 222.113 39.1597C222.113 38.0532 221.887 36.9597 221.453 35.9516C221.018 34.9437 220.385 34.0445 219.593 33.3142C218.801 32.5836 217.871 32.0387 216.862 31.7158C215.855 31.3928 214.793 31.2991 213.748 31.4409C212.702 31.5826 211.698 31.9567 210.801 32.5382C209.905 33.1195 209.136 33.8949 208.547 34.8127C207.959 35.7303 207.563 36.7691 207.386 37.86C207.211 38.9509 207.258 40.0686 207.526 41.1387C206.63 40.4564 205.6 39.9934 204.51 39.7836C203.421 39.5741 202.302 39.6229 201.234 39.9269C200.164 40.2309 199.175 40.7821 198.335 41.5403C197.496 42.2983 196.829 43.244 196.384 44.3081C195.938 45.3719 195.725 46.5272 195.761 47.6887C195.797 48.8504 196.08 49.9889 196.587 51.0209C197.097 52.0528 197.82 52.952 198.703 53.6525C199.587 54.3529 200.608 54.8367 201.694 55.0686C202.137 56.3018 202.87 57.3966 203.827 58.2508C204.782 59.1049 205.929 59.6901 207.159 59.9517C208.39 60.2132 209.663 60.1426 210.861 59.7463C212.058 59.3499 213.14 58.6411 214.006 57.686C214.891 58.3873 215.914 58.8713 217.001 59.1024C218.089 59.3334 219.21 59.3056 220.285 59.021C221.362 58.7363 222.361 58.2021 223.215 57.4577C224.068 56.7132 224.749 55.7774 225.212 54.7194C226.62 54.1593 227.831 53.163 228.686 51.8628C229.542 50.5626 230 49.0199 230 47.4399Z" fill="white"/>
<path d="M34.2407 28.7277C34.2417 27.705 34.0506 26.6921 33.6785 25.7469C33.3064 24.8017 32.7605 23.9427 32.0721 23.2191C31.3836 22.4954 30.566 21.9213 29.6661 21.5294C28.7663 21.1377 27.8016 20.9359 26.8274 20.9357C26.6628 20.9357 26.5001 20.9357 26.3391 20.9526C26.3498 20.7836 26.3552 20.6128 26.3552 20.44C26.355 19.3335 26.1302 18.2399 25.6956 17.2319C25.2612 16.2239 24.627 15.3248 23.8354 14.5944C23.0438 13.8639 22.1129 13.3191 21.1049 12.9961C20.0969 12.6731 19.0351 12.5793 17.9899 12.7211C16.9446 12.8629 15.9402 13.237 15.0436 13.8184C14.1469 14.3998 13.3786 15.1752 12.7899 16.0929C12.2012 17.0106 11.8056 18.0494 11.6294 19.1403C11.4532 20.231 11.5006 21.3488 11.7683 22.419C10.8721 21.7367 9.8418 21.2737 8.75293 21.0639C7.66406 20.8542 6.54429 20.9032 5.47579 21.2072C4.40727 21.5112 3.41716 22.0625 2.57807 22.8204C1.73901 23.5786 1.07228 24.5244 0.626814 25.5884C0.181351 26.6522 -0.0315366 27.8075 0.00377314 28.969C0.0390828 30.1307 0.321694 31.2693 0.830867 32.3012C1.34004 33.3331 2.06285 34.2323 2.94625 34.9328C3.82968 35.6332 4.85126 36.117 5.93606 36.3489C6.37937 37.581 7.11322 38.6749 8.0689 39.5281C9.02458 40.3813 10.1709 40.9661 11.4004 41.2275C12.63 41.489 13.9027 41.4188 15.0994 41.0232C16.296 40.6278 17.3775 39.9201 18.2426 38.9663C19.1277 39.6676 20.1515 40.1516 21.2383 40.3828C22.3252 40.6137 23.4477 40.5859 24.5229 40.3013C25.5981 40.0166 26.599 39.4825 27.4516 38.738C28.3041 37.9935 28.9868 37.0577 29.4493 35.9997C30.8561 35.4405 32.0678 34.4456 32.9236 33.1469C33.7794 31.8481 34.2387 30.3068 34.2407 28.7277Z" fill="white"/>
<path d="M170.654 139.493H63.9707V137.052H170.654C170.963 137.052 171.258 137.181 171.476 137.409C171.694 137.638 171.817 137.949 171.817 138.273C171.817 138.596 171.694 138.907 171.476 139.136C171.258 139.364 170.963 139.493 170.654 139.493Z" fill="#426572"/>
<path d="M59.1992 139.493H52.6766C52.3683 139.493 52.0726 139.364 51.8546 139.136C51.6366 138.907 51.5141 138.596 51.5141 138.273C51.5141 137.949 51.6366 137.638 51.8546 137.409C52.0726 137.181 52.3683 137.052 52.6766 137.052H59.1992C59.5076 137.052 59.8032 137.181 60.0212 137.409C60.2393 137.638 60.3618 137.949 60.3618 138.273C60.3618 138.596 60.2393 138.907 60.0212 139.136C59.8032 139.364 59.5076 139.493 59.1992 139.493Z" fill="#426572"/>
<path d="M48.4434 139.493H46.3652C46.0569 139.493 45.7612 139.364 45.5432 139.136C45.3252 138.907 45.2027 138.596 45.2027 138.273C45.2027 137.949 45.3252 137.638 45.5432 137.409C45.7612 137.181 46.0569 137.052 46.3652 137.052H48.4434C48.7518 137.052 49.0474 137.181 49.2654 137.409C49.4835 137.638 49.606 137.949 49.606 138.273C49.606 138.596 49.4835 138.907 49.2654 139.136C49.0474 139.364 48.7518 139.493 48.4434 139.493Z" fill="#426572"/>
<path d="M208.062 139.493H175.272V137.052H208.062C208.37 137.052 208.667 137.181 208.885 137.409C209.103 137.638 209.225 137.949 209.225 138.273C209.225 138.596 209.103 138.907 208.885 139.136C208.667 139.364 208.37 139.493 208.062 139.493Z" fill="#426572"/>
<path d="M40.4195 139.493H7.62762V137.052H40.4195C40.7279 137.052 41.0237 137.181 41.2417 137.409C41.4597 137.638 41.5821 137.949 41.5821 138.273C41.5821 138.596 41.4597 138.907 41.2417 139.136C41.0237 139.364 40.7279 139.493 40.4195 139.493Z" fill="#426572"/>
<path d="M50.8112 44.2292H170.25C172.406 44.2292 174.473 45.1278 175.998 46.7277C177.523 48.3278 178.38 50.4978 178.381 52.761V133.922H42.6807V52.761C42.6816 50.4978 43.5387 48.3278 45.0634 46.7277C46.5879 45.1278 48.6554 44.2292 50.8112 44.2292Z" fill="#EBF0F9"/>
<path d="M173.664 50.4535H47.9352V125.858H173.664V50.4535Z" fill="#637F91"/>
<path d="M46.9929 125.717H174.199C174.199 126.316 173.974 126.89 173.571 127.314C173.169 127.739 172.623 127.978 172.053 127.981H49.1481C48.5761 127.981 48.0274 127.743 47.6228 127.318C47.2185 126.894 46.9911 126.318 46.9911 125.717H46.9929Z" fill="white"/>
<g opacity="0.5">
<path opacity="0.5" d="M85.5062 50.1718L66.7073 126.282H57.2408L76.0397 50.1718H85.5062Z" fill="#A7BCD5"/>
<path opacity="0.5" d="M109.635 50.1718L90.8379 126.282H70.9856L89.7844 50.1718H109.635Z" fill="#A7BCD5"/>
</g>
<path d="M179.454 135.049H41.6077V49.1222C41.6095 47.5263 42.2141 45.9964 43.289 44.8678C44.3641 43.7394 45.8213 43.1045 47.3416 43.1027H173.72C175.24 43.1045 176.697 43.7394 177.772 44.8678C178.847 45.9964 179.452 47.5263 179.454 49.1222V135.049ZM43.7539 132.796H177.308V49.1222C177.307 48.1236 176.928 47.1662 176.256 46.46C175.583 45.7538 174.671 45.3567 173.72 45.3558H47.3416C46.3903 45.3567 45.4783 45.7538 44.8057 46.46C44.133 47.1662 43.7547 48.1236 43.7539 49.1222V132.796Z" fill="#426572"/>
<path d="M25.5663 131.235H199.134V131.834C199.134 133.776 198.399 135.639 197.092 137.012C195.783 138.385 194.008 139.157 192.159 139.157H32.5414C30.6916 139.157 28.9174 138.385 27.6093 137.012C26.3012 135.639 25.5663 133.776 25.5663 131.834V131.235Z" fill="#EBF0F9"/>
<path opacity="0.5" d="M198.245 135.054C197.864 136.096 197.19 136.992 196.314 137.623C195.437 138.255 194.398 138.592 193.336 138.592H30.2829C29.2204 138.592 28.1829 138.254 27.307 137.622C26.4314 136.991 25.7584 136.095 25.3771 135.054H198.245Z" fill="#A7BCD5"/>
<path d="M191.349 140H31.7332C29.5994 139.998 27.5537 139.106 26.0449 137.523C24.536 135.939 23.6873 133.791 23.685 131.551V129.825H199.399V131.551C199.397 133.791 198.548 135.939 197.038 137.523C195.529 139.107 193.483 139.998 191.349 140ZM25.8509 132.078C25.9768 133.625 26.6507 135.065 27.7397 136.115C28.8285 137.164 30.2531 137.747 31.7314 137.747H191.349C192.828 137.747 194.252 137.164 195.341 136.115C196.43 135.065 197.104 133.625 197.229 132.078H25.8509Z" fill="#426572"/>
<path d="M174.467 126.56H46.5902V49.3269H174.467V126.56ZM48.7364 124.307H172.321V51.58H48.7364V124.307Z" fill="#426572"/>
<path d="M154.445 26.2474V125.434H68.7389V26.2474C68.7421 25.8002 68.9127 25.3725 69.2139 25.0563C69.5151 24.7401 69.9227 24.561 70.3485 24.5576H152.828C152.926 24.5576 153.023 24.567 153.118 24.5858C153.489 24.6577 153.824 24.8629 154.066 25.1661C154.308 25.4694 154.442 25.8516 154.445 26.2474Z" fill="white"/>
<path d="M70.0877 32.7552H154.716V26.7882L153.097 24.5501H78.9819H71.7045L69.0093 26.7882V32.7552H70.0877Z" fill="#E2F2FF"/>
<path d="M155.789 126.56H67.9362V26.2474C67.9388 25.5013 68.2225 24.7867 68.7249 24.2591C69.2274 23.7316 69.9081 23.4339 70.6189 23.431H153.095C153.806 23.4339 154.486 23.7316 154.989 24.2591C155.491 24.7867 155.775 25.5013 155.778 26.2474L155.789 126.56ZM70.0823 124.307H153.642V26.2474C153.639 26.0991 153.581 25.9581 153.481 25.8533C153.381 25.7484 153.247 25.6879 153.106 25.6842H70.626C70.4848 25.6879 70.3504 25.7484 70.2506 25.8533C70.1507 25.9581 70.0931 26.0991 70.0895 26.2474L70.0823 124.307Z" fill="#426572"/>
<path d="M149.443 28.0274H74.051C73.4552 28.0274 72.9725 28.5342 72.9725 29.1596C72.9725 29.7848 73.4552 30.2918 74.051 30.2918H149.443C150.039 30.2918 150.522 29.7848 150.522 29.1596C150.522 28.5342 150.039 28.0274 149.443 28.0274Z" fill="#CADCE8"/>
<path d="M96.9562 43.3805H79.3342V64.4604H96.9562V43.3805Z" fill="#E8837E"/>
<path d="M140.404 43.3805H98.6191V64.4604H140.404V43.3805Z" fill="#E8837E"/>
<path d="M140.404 66.7942H120.675V87.874H140.404V66.7942Z" fill="#DDE4ED"/>
<path d="M119.012 66.7942H79.5557V87.874H119.012V66.7942Z" fill="#DDE4ED"/>
<path d="M140.515 90.2079H79.5557V111.288H140.515V90.2079Z" fill="#DDE4ED"/>
<path d="M141.053 114.121H125.422V116.374H141.053V114.121Z" fill="#DDE4ED"/>
<path d="M55.6618 120.062H30.0756C29.6544 120.065 29.2392 119.956 28.8684 119.746C28.3319 119.438 27.9885 118.933 27.9885 118.364L28.0028 81.4395C28.0031 81.1977 28.0648 80.9605 28.1816 80.7523C28.5071 80.159 29.2422 79.7422 30.0899 79.7422H55.6761C56.5703 79.7422 57.3233 80.1965 57.6238 80.8312C57.7148 81.0191 57.7626 81.2268 57.7633 81.4376L57.7508 118.364C57.7508 119.217 56.9656 119.928 55.9515 120.045C55.8553 120.056 55.7585 120.062 55.6618 120.062Z" fill="white"/>
<path d="M56.3575 119.778L30.7624 119.773C30.3412 119.776 29.9259 119.667 29.5552 119.457C29.0186 119.149 28.6752 118.644 28.6752 118.075L28.6895 81.1504C28.6899 80.9085 28.7516 80.6714 28.8684 80.4632C29.1939 79.8698 29.929 79.453 30.7767 79.453H31.1255L31.1201 115.811C31.1201 116.374 31.4671 116.885 32 117.193C32.3708 117.403 32.7861 117.511 33.2073 117.508H58.4465V118.072C58.4465 118.924 57.6613 119.636 56.6472 119.752C56.5512 119.766 56.4544 119.775 56.3575 119.778Z" fill="#D6DEE9"/>
<path d="M56.0084 120.905H30.4204C29.817 120.908 29.2227 120.751 28.6928 120.449C27.7985 119.928 27.262 119.042 27.262 118.081L27.2763 81.156C27.2784 80.7155 27.3913 80.2835 27.6036 79.9036C28.1401 78.9367 29.2132 78.334 30.4383 78.334H56.0245C57.2764 78.334 58.3942 78.9817 58.9022 79.9881L59.0452 80.2191V80.3242C59.1377 80.592 59.1849 80.8747 59.1848 81.1597L59.1704 118.085C59.1704 119.5 57.9847 120.713 56.4144 120.884C56.2795 120.899 56.144 120.906 56.0084 120.905ZM30.433 80.5777C29.9519 80.5777 29.5763 80.8011 29.4564 81.0227C29.433 81.06 29.42 81.1036 29.4189 81.1485L29.4046 118.073C29.4046 118.197 29.5351 118.355 29.7301 118.47C29.9426 118.588 30.1799 118.648 30.4204 118.646H56.0066C56.0628 118.646 56.1189 118.643 56.1747 118.637C56.7113 118.577 57.0225 118.261 57.0225 118.073L57.0368 81.1485C57.0368 81.126 57.033 81.1038 57.026 81.0828L56.9259 80.9213C56.6785 80.687 56.3537 80.5636 56.0209 80.5777H30.4347H30.433Z" fill="#426572"/>
<path d="M53.0576 95.7205H35.7056V97.9737H53.0576V95.7205Z" fill="#426572"/>
<path d="M53.0576 91.019H35.7056V93.2722H53.0576V91.019Z" fill="#426572"/>
<path d="M53.0576 101.047H35.7056V103.3H53.0576V101.047Z" fill="#426572"/>
<path opacity="0.2" d="M191.726 53.3243C192.976 50.8611 193.744 48.16 193.983 45.3804C194.223 42.6006 193.93 39.7988 193.121 37.14C192.313 34.4813 191.006 32.0196 189.274 29.8999C187.545 27.7805 185.429 26.0462 183.05 24.7992C180.672 23.5523 178.08 22.8182 175.427 22.6402C172.773 22.4622 170.113 22.8439 167.603 23.7626C165.092 24.6815 162.783 26.119 160.81 27.99C158.838 29.8613 157.242 32.1281 156.118 34.6572C154.565 37.7186 153.762 41.1376 153.781 44.6059C153.801 48.0744 154.642 51.4831 156.229 54.525C157.817 57.5669 160.1 60.1464 162.874 62.0309C165.647 63.9155 168.824 65.046 172.118 65.3203C171.543 65.463 170.959 65.5787 170.367 65.6677C173.484 66.1395 176.664 65.828 179.645 64.7587C182.627 63.6894 185.322 61.8929 187.513 59.5166C189.265 57.7399 190.694 55.6411 191.726 53.3243Z" fill="#606060"/>
<path d="M171.474 60.4404C182.467 60.4404 191.379 51.0842 191.379 39.5427C191.379 28.0013 182.467 18.645 171.474 18.645C160.48 18.645 151.568 28.0013 151.568 39.5427C151.568 51.0842 160.48 60.4404 171.474 60.4404Z" fill="#A8EF9E"/>
<path d="M190.43 41.0354C190.43 44.0315 189.814 46.9927 188.629 49.7178C187.443 52.443 185.712 54.8685 183.555 56.83C181.398 58.7913 178.863 60.2429 176.124 61.0861C173.386 61.9294 170.506 62.1445 167.682 61.7172C172.418 60.9983 176.75 58.5119 179.883 54.7134C183.015 50.915 184.739 46.0588 184.739 41.0345C184.739 36.01 183.015 31.1538 179.883 27.3554C176.75 23.5568 172.418 21.0705 167.682 20.3518C170.507 19.9239 173.386 20.1388 176.125 20.9821C178.863 21.8253 181.398 23.2771 183.556 25.2388C185.713 27.2005 187.445 29.6264 188.63 32.3519C189.816 35.0774 190.431 38.0388 190.431 41.0354H190.43Z" fill="#A7E59C"/>
<path d="M170.999 62.5602C166.85 62.5602 162.794 61.2684 159.344 58.8484C155.894 56.4284 153.205 52.9886 151.617 48.9643C150.029 44.9399 149.614 40.5116 150.423 36.2393C151.233 31.967 153.231 28.0426 156.165 24.9624C159.099 21.8824 162.837 19.7847 166.906 18.9349C170.976 18.0851 175.194 18.5212 179.028 20.1882C182.861 21.8552 186.137 24.6781 188.443 28.3C190.748 31.9217 191.978 36.1799 191.978 40.536C191.971 46.3751 189.759 51.9734 185.826 56.1024C181.893 60.2313 176.561 62.5537 170.999 62.5602ZM170.999 20.7667C167.274 20.7667 163.633 21.9263 160.536 24.0987C157.439 26.2713 155.025 29.359 153.6 32.9717C152.174 36.5844 151.802 40.5598 152.528 44.395C153.255 48.2302 155.049 51.7531 157.682 54.5181C160.316 57.2832 163.672 59.1663 167.325 59.9292C170.978 60.692 174.765 60.3004 178.206 58.8039C181.648 57.3075 184.588 54.7735 186.658 51.522C188.727 48.2708 189.832 44.4481 189.832 40.5379C189.827 35.296 187.842 30.2702 184.309 26.5636C180.779 22.8569 175.992 20.7722 170.999 20.7667Z" fill="#426572"/>
<path d="M181.054 31.991C180.625 31.739 180.119 31.6714 179.643 31.8023C179.168 31.9334 178.759 32.2526 178.502 32.6932L175.056 38.6077L169.549 48.0483L169.395 48.313L163.037 42.9731L161.878 42.0005C161.118 41.3621 159.972 41.1612 159.24 42.0005C158.618 42.7121 158.426 44.0865 159.24 44.77L167.415 51.6345L168.574 52.6071C169.055 53.0126 169.513 53.2342 170.141 53.1459C170.422 53.1097 170.69 53.0062 170.927 52.8435C171.163 52.6807 171.361 52.4629 171.504 52.2071L174.95 46.2927L180.459 36.854L181.73 34.6722C182.233 33.7973 181.933 32.4829 181.054 31.991Z" fill="white"/>
<defs>
<linearGradient id="paint0_linear_16_357" x1="0.236208" y1="69.6951" x2="224.384" y2="69.6951" gradientUnits="userSpaceOnUse">
<stop stop-color="#C5E9FA"/>
<stop offset="1" stop-color="#C4F4EA"/>
</linearGradient>
</defs>
</svg>
