<svg width="230" height="140" viewBox="0 0 230 140" fill="none" xmlns="http://www.w3.org/2000/svg">
<path d="M217.87 84.3391C209.742 106.421 194.459 125.767 173.232 134.269C170.471 135.373 167.652 136.31 164.788 137.075C149.643 141.126 133.075 139.717 119.114 132.335C113.188 129.199 107.785 125.056 101.839 121.966C95.8919 118.875 89.101 116.852 82.6285 118.378C77.0555 119.691 72.3536 123.455 67.6194 126.809C56.4593 134.714 43.0402 140.97 29.825 138.255C23.7442 137.007 17.7563 133.551 14.9322 127.773C8.69039 115 20.4623 99.8141 18.0782 85.6882C16.5526 76.6475 9.58463 69.8773 5.25291 61.8987C-2.16039 48.2513 -1.28402 30.123 7.40804 17.335C16.1001 4.54704 32.1465 -2.2363 46.8586 0.664672C64.799 4.20365 78.3629 20.1328 95.8078 25.7696C106.718 29.2917 118.563 28.2409 128.983 23.6024C145.818 16.1059 168.946 4.60896 187.892 6.48165C197.966 7.47804 207.848 12.1692 214.497 20.1797C222.903 30.2919 225.423 44.6485 224.021 57.9826C223.059 67.0088 220.991 75.8673 217.87 84.3391Z" fill="url(#paint0_linear_16_312)"/>
<path d="M223.279 101.805C222.905 101.804 222.533 101.757 222.17 101.664C221.022 101.368 220.026 100.624 219.384 99.5825C218.741 98.5415 218.502 97.2826 218.715 96.0625C218.926 94.8427 219.575 93.7537 220.526 93.0184C221.478 92.2828 222.662 91.9563 223.835 92.1051C225.008 92.2541 226.083 92.8673 226.84 93.8198C227.598 94.7721 227.979 95.9916 227.909 97.2295C227.838 98.4674 227.319 99.6302 226.459 100.481C225.599 101.331 224.461 101.805 223.279 101.805ZM223.279 94.2655C222.664 94.2679 222.072 94.5062 221.612 94.9353C221.152 95.3645 220.859 95.9548 220.786 96.5954C220.714 97.236 220.866 97.8825 221.217 98.4131C221.566 98.9436 222.088 99.3219 222.685 99.4763C223.03 99.5634 223.39 99.5728 223.74 99.5039C224.089 99.4349 224.42 99.2891 224.711 99.0761C225.003 98.8631 225.25 98.5877 225.432 98.2679C225.615 97.9482 225.733 97.5915 225.774 97.221C225.817 96.8508 225.783 96.4752 225.677 96.1192C225.572 95.7632 225.395 95.4349 225.159 95.1556C224.923 94.8764 224.635 94.6528 224.309 94.4993C223.985 94.346 223.635 94.2662 223.279 94.2655Z" fill="#E7F6FF"/>
<path d="M219.046 106.967C219.308 105.826 218.641 104.677 217.554 104.4C216.465 104.123 215.37 104.824 215.105 105.965C214.843 107.106 215.51 108.256 216.599 108.532C217.686 108.809 218.781 108.108 219.046 106.967Z" fill="#E7F6FF"/>
<path d="M9.871 101.342C8.64258 101.313 7.47432 100.778 6.61983 99.8516C5.76536 98.9252 5.29363 97.6826 5.30704 96.3935C5.32047 95.1044 5.81796 93.8729 6.69153 92.9664C7.5651 92.0599 8.74422 91.5514 9.97295 91.5514C11.2017 91.5514 12.3808 92.0599 13.2543 92.9664C14.1279 93.8729 14.6254 95.1044 14.6388 96.3935C14.6523 97.6826 14.1805 98.9252 13.326 99.8516C12.4716 100.778 11.3033 101.313 10.0749 101.342H9.871ZM9.871 93.8038H9.76548C9.10202 93.8189 8.47101 94.1078 8.00943 94.6081C7.54786 95.1083 7.293 95.7795 7.30019 96.4757C7.30738 97.1719 7.57601 97.8371 8.0478 98.3266C8.51958 98.8164 9.15641 99.0909 9.82003 99.0909C10.4837 99.0909 11.1205 98.8164 11.5922 98.3266C12.064 97.8371 12.3327 97.1719 12.3399 96.4757C12.347 95.7795 12.0922 95.1083 11.6306 94.6081C11.1691 94.1078 10.538 93.8189 9.87458 93.8038H9.871Z" fill="#E7F6FF"/>
<path d="M6.54394 109.557C7.66203 109.506 8.52932 108.514 8.48109 107.341C8.43285 106.168 7.48737 105.258 6.36927 105.309C5.2512 105.36 4.38391 106.352 4.43212 107.525C4.48036 108.698 5.42584 109.608 6.54394 109.557Z" fill="#E7F6FF"/>
<path d="M126.818 22.1913C125.705 22.1922 124.628 21.7751 123.782 21.0151C122.936 20.2552 122.378 19.2027 122.208 18.0481C122.038 16.8936 122.267 15.7133 122.855 14.721C123.442 13.7286 124.349 12.9897 125.411 12.638C126.473 12.2863 127.62 12.3451 128.644 12.8037C129.668 13.2623 130.502 14.0903 130.994 15.1381C131.487 16.1858 131.605 17.3839 131.329 18.5155C131.052 19.6472 130.399 20.6376 129.487 21.3075C128.704 21.8817 127.773 22.1901 126.818 22.1913ZM126.804 14.6554C126.152 14.6547 125.526 14.9178 125.055 15.3899C124.583 15.862 124.304 16.5067 124.275 17.1895C124.246 17.8724 124.469 18.5407 124.898 19.0554C125.326 19.5699 125.928 19.8909 126.577 19.9515C127.226 20.0122 127.872 19.8076 128.381 19.3807C128.89 18.9538 129.222 18.3374 129.308 17.6598C129.394 16.9823 129.228 16.296 128.844 15.744C128.459 15.192 127.887 14.8168 127.246 14.6967C127.1 14.6694 126.952 14.6556 126.804 14.6554Z" fill="#E7F6FF"/>
<path d="M117.304 21.9237C118.221 21.2495 118.442 19.9238 117.8 18.9623C117.157 18.001 115.894 17.7682 114.977 18.4423C114.061 19.1165 113.839 20.4422 114.482 21.4037C115.124 22.365 116.388 22.5979 117.304 21.9237Z" fill="#E7F6FF"/>
<path d="M230 47.4107C230 45.3473 229.218 43.3684 227.829 41.9095C226.437 40.4506 224.552 39.6309 222.585 39.6309C222.42 39.6309 222.258 39.6309 222.097 39.6478C222.107 39.4789 222.113 39.3082 222.113 39.1356C222.113 38.0298 221.887 36.9369 221.453 35.9295C221.018 34.9222 220.385 34.0236 219.593 33.2936C218.8 32.5635 217.87 32.019 216.862 31.6962C215.855 31.3735 214.792 31.2798 213.748 31.4215C212.702 31.5632 211.698 31.937 210.801 32.5181C209.905 33.099 209.135 33.874 208.547 34.7912C207.959 35.7082 207.563 36.7465 207.386 37.8367C207.211 38.9269 207.258 40.0439 207.526 41.1133C206.63 40.4314 205.6 39.9687 204.51 39.7591C203.421 39.5497 202.302 39.5985 201.234 39.9023C200.164 40.2061 199.175 40.757 198.335 41.5147C197.496 42.2722 196.829 43.2174 196.384 44.2808C195.938 45.344 195.725 46.4985 195.761 47.6593C195.797 48.8203 196.079 49.9581 196.587 50.9894C197.097 52.0207 197.82 52.9193 198.703 53.6194C199.587 54.3194 200.608 54.8029 201.694 55.0347C202.137 56.2671 202.87 57.3613 203.827 58.2149C204.782 59.0684 205.929 59.6533 207.159 59.9147C208.39 60.1761 209.663 60.1056 210.861 59.7094C212.058 59.3133 213.14 58.605 214.006 57.6504C214.891 58.3513 215.914 58.835 217.001 59.066C218.089 59.2968 219.21 59.269 220.285 58.9846C221.362 58.7001 222.361 58.1663 223.214 57.4222C224.068 56.6782 224.749 55.743 225.212 54.6856C226.62 54.1259 227.831 53.1303 228.685 51.8308C229.542 50.5314 230 48.9897 230 47.4107Z" fill="white"/>
<path d="M34.2407 28.71C34.2417 27.6879 34.0505 26.6756 33.6785 25.731C33.3064 24.7864 32.7605 23.9279 32.0721 23.2047C31.3835 22.4816 30.566 21.9077 29.6661 21.5161C28.7663 21.1247 27.8016 20.923 26.8274 20.9228C26.6628 20.9228 26.5001 20.9228 26.3391 20.9397C26.3498 20.7708 26.3552 20.6 26.3552 20.4274C26.355 19.3216 26.1302 18.2287 25.6956 17.2213C25.2612 16.2139 24.627 15.3153 23.8354 14.5854C23.0438 13.8554 22.1129 13.3109 21.1049 12.9881C20.0969 12.6652 19.0351 12.5716 17.9899 12.7133C16.9446 12.855 15.9402 13.2289 15.0436 13.8099C14.1469 14.391 13.3786 15.1659 12.7899 16.083C12.2012 17.0001 11.8056 18.0383 11.6294 19.1285C11.4532 20.2186 11.5006 21.3356 11.7683 22.4052C10.8721 21.7233 9.8418 21.2606 8.75293 21.051C7.66406 20.8414 6.54429 20.8903 5.47579 21.1941C4.40727 21.4979 3.41716 22.0489 2.57807 22.8064C1.73901 23.5641 1.07228 24.5092 0.626814 25.5726C0.181351 26.6358 -0.0315366 27.7904 0.00377314 28.9512C0.0390828 30.1121 0.321694 31.25 0.830867 32.2813C1.34004 33.3126 2.06285 34.2112 2.94625 34.9113C3.82968 35.6112 4.85126 36.0948 5.93606 36.3265C6.37937 37.5578 7.11322 38.6511 8.0689 39.5037C9.02458 40.3564 10.1709 40.9409 11.4004 41.2021C12.63 41.4635 13.9027 41.3933 15.0994 40.9979C16.296 40.6027 17.3775 39.8955 18.2426 38.9423C19.1277 39.6431 20.1515 40.1269 21.2383 40.3579C22.3252 40.5887 23.4477 40.5609 24.5229 40.2764C25.5981 39.992 26.599 39.4581 27.4516 38.7141C28.3041 37.9701 28.9868 37.0349 29.4493 35.9775C30.8561 35.4187 32.0678 34.4244 32.9236 33.1264C33.7794 31.8285 34.2387 30.2881 34.2407 28.71Z" fill="white"/>
<path d="M170.654 139.407H63.9708V136.968H170.654C170.963 136.968 171.258 137.096 171.476 137.325C171.694 137.553 171.817 137.864 171.817 138.187C171.817 138.511 171.694 138.821 171.476 139.05C171.258 139.278 170.963 139.407 170.654 139.407Z" fill="#426572"/>
<path d="M59.1992 139.407H52.6766C52.3683 139.407 52.0726 139.278 51.8546 139.05C51.6366 138.821 51.5141 138.511 51.5141 138.187C51.5141 137.864 51.6366 137.553 51.8546 137.325C52.0726 137.096 52.3683 136.968 52.6766 136.968H59.1992C59.5076 136.968 59.8032 137.096 60.0212 137.325C60.2392 137.553 60.3618 137.864 60.3618 138.187C60.3618 138.511 60.2392 138.821 60.0212 139.05C59.8032 139.278 59.5076 139.407 59.1992 139.407Z" fill="#426572"/>
<path d="M48.4434 139.407H46.3652C46.0569 139.407 45.7612 139.278 45.5432 139.05C45.3252 138.821 45.2027 138.511 45.2027 138.187C45.2027 137.864 45.3252 137.553 45.5432 137.325C45.7612 137.096 46.0569 136.968 46.3652 136.968H48.4434C48.7518 136.968 49.0474 137.096 49.2654 137.325C49.4835 137.553 49.606 137.864 49.606 138.187C49.606 138.511 49.4835 138.821 49.2654 139.05C49.0474 139.278 48.7518 139.407 48.4434 139.407Z" fill="#426572"/>
<path d="M208.062 139.407H175.272V136.968H208.062C208.37 136.968 208.667 137.096 208.885 137.325C209.103 137.553 209.225 137.864 209.225 138.187C209.225 138.511 209.103 138.821 208.885 139.05C208.667 139.278 208.37 139.407 208.062 139.407Z" fill="#426572"/>
<path d="M40.4195 139.407H7.62762V136.968H40.4195C40.7279 136.968 41.0237 137.096 41.2417 137.325C41.4597 137.553 41.5821 137.864 41.5821 138.187C41.5821 138.511 41.4597 138.821 41.2417 139.05C41.0237 139.278 40.7279 139.407 40.4195 139.407Z" fill="#426572"/>
<path d="M45.476 44.1794H176.166C176.48 44.1794 176.791 44.2443 177.081 44.3703C177.371 44.4962 177.634 44.6808 177.856 44.9137C178.078 45.1465 178.254 45.4228 178.374 45.7269C178.494 46.0311 178.556 46.357 178.556 46.6864V133.661H43.0865V46.6864C43.0865 46.357 43.1484 46.0311 43.2684 45.7269C43.3886 45.4228 43.5646 45.1465 43.7864 44.9137C44.0083 44.6808 44.2718 44.4962 44.5617 44.3703C44.8514 44.2443 45.1623 44.1794 45.476 44.1794Z" fill="#EBF0F9"/>
<path d="M173.844 50.3886H48.3326V125.615H173.844V50.3886Z" fill="#637F91"/>
<path d="M47.395 125.474H174.378C174.378 126.072 174.152 126.644 173.749 127.067C173.347 127.489 172.801 127.726 172.232 127.726H49.5412C48.9719 127.726 48.4261 127.489 48.0236 127.067C47.6211 126.644 47.395 126.072 47.395 125.474Z" fill="white"/>
<g opacity="0.5">
<path opacity="0.5" d="M85.8368 50.1071L67.072 126.039H57.6216L76.3864 50.1071H85.8368Z" fill="#A7BCD5"/>
<path opacity="0.5" d="M109.926 50.1071L91.1591 126.039H71.3426L90.1074 50.1071H109.926Z" fill="#A7BCD5"/>
</g>
<path d="M179.624 134.787H42.0134V52.7097C42.0163 50.1497 42.9869 47.6953 44.7123 45.8851C46.4376 44.0749 48.777 43.0566 51.217 43.0536H102.743V45.3053H51.217C49.3461 45.3077 47.5524 46.0887 46.2293 47.4767C44.9063 48.8647 44.1619 50.7468 44.1596 52.7097V132.535H177.477V47.3562C177.477 46.8125 177.271 46.291 176.904 45.9065C176.538 45.522 176.041 45.3059 175.523 45.3053H126.529V43.0536H175.523C176.609 43.0569 177.65 43.5114 178.419 44.3175C179.187 45.1238 179.62 46.2161 179.624 47.3562V134.787Z" fill="#426572"/>
<path d="M26.0009 130.976H199.267V131.562C199.267 133.502 198.531 135.364 197.224 136.736C195.915 138.109 194.141 138.88 192.291 138.88H32.976C31.126 138.88 29.352 138.109 28.0439 136.736C26.7358 135.364 26.0009 133.502 26.0009 131.562V130.976Z" fill="#EBF0F9"/>
<path opacity="0.5" d="M198.381 134.791C198 135.829 197.328 136.722 196.453 137.352C195.579 137.982 194.543 138.319 193.483 138.319H30.7102C29.6496 138.319 28.6137 137.982 27.7391 137.352C26.8647 136.722 26.1926 135.829 25.8115 134.791H198.381Z" fill="#A7BCD5"/>
<path d="M191.485 139.728H32.1698C30.0359 139.725 27.9902 138.835 26.4815 137.252C24.9727 135.669 24.1239 133.523 24.1216 131.284V129.573H199.533V131.284C199.531 133.523 198.682 135.669 197.174 137.252C195.665 138.835 193.618 139.725 191.485 139.728ZM26.291 131.822C26.4199 133.365 27.0953 134.802 28.1838 135.848C29.2724 136.894 30.6953 137.474 32.1715 137.474H191.487C192.964 137.474 194.386 136.894 195.475 135.848C196.562 134.802 197.238 133.365 197.367 131.822H26.291Z" fill="#426572"/>
<path d="M174.647 126.319H46.9912V49.2627H174.647V126.319ZM49.1356 124.067H172.5V51.5144H49.1374L49.1356 124.067Z" fill="#426572"/>
<path d="M196.038 68.455V89.2028C196.037 89.6498 195.865 90.0776 195.564 90.3936C195.262 90.7098 194.854 90.8886 194.429 90.8916H159.314C159.088 90.892 158.865 90.8423 158.659 90.7452C158.373 90.613 158.131 90.3964 157.96 90.1219C157.789 89.8474 157.699 89.5267 157.699 89.1991V68.455C157.698 68.1127 157.797 67.7783 157.981 67.4961C158.166 67.2141 158.428 66.9974 158.733 66.875C158.916 66.8001 159.112 66.7619 159.308 66.7624H194.418C194.808 66.7636 195.183 66.9116 195.477 67.1792C195.77 67.4469 195.961 67.8164 196.017 68.2204C196.029 68.2979 196.037 68.3764 196.038 68.455Z" fill="white"/>
<path d="M195.77 67.8902V88.638C195.768 89.085 195.597 89.5128 195.296 89.8288C194.994 90.145 194.586 90.3238 194.16 90.3268H159.046C158.82 90.3274 158.597 90.2774 158.391 90.1804C158.105 90.0481 157.862 89.8316 157.692 89.5571C157.521 89.2826 157.43 88.9619 157.431 88.6342V88.3528H192.003C192.429 88.3498 192.837 88.171 193.139 87.8548C193.44 87.5388 193.611 87.1109 193.613 86.664V66.1976H194.15C194.54 66.1987 194.915 66.3468 195.208 66.6146C195.502 66.8821 195.693 67.2516 195.749 67.6556C195.761 67.7331 195.768 67.8115 195.77 67.8902Z" fill="#D6DEE9"/>
<path d="M194.155 91.7397H159.046C158.668 91.7405 158.295 91.6566 157.951 91.4939C157.476 91.2727 157.073 90.9117 156.79 90.4546C156.507 89.9977 156.357 89.4644 156.357 88.9195V68.1735C156.36 67.6158 156.519 67.0715 156.815 66.6082C157.111 66.1451 157.53 65.7835 158.021 65.569L158.2 65.4677H158.285C158.53 65.3922 158.784 65.3543 159.038 65.3551H194.148C194.795 65.3575 195.42 65.6039 195.91 66.0492C196.398 66.4945 196.716 67.1092 196.809 67.7813C196.827 67.9112 196.836 68.0421 196.836 68.1735V88.9213C196.838 89.5075 196.663 90.0791 196.337 90.5557C196.088 90.9203 195.761 91.2179 195.382 91.4238C195.003 91.6298 194.582 91.7379 194.155 91.7397ZM158.724 67.7213C158.655 67.7734 158.6 67.8417 158.562 67.9207C158.524 67.9996 158.504 68.0868 158.504 68.1754V88.9213C158.503 89.0313 158.534 89.139 158.592 89.2311C158.649 89.3231 158.731 89.3955 158.827 89.4392C158.896 89.4717 158.97 89.4882 159.046 89.488H194.155C194.243 89.4878 194.327 89.4657 194.404 89.4235C194.481 89.3814 194.547 89.3204 194.595 89.246C194.661 89.1506 194.695 89.0365 194.695 88.9195V68.1735C194.697 68.1497 194.697 68.1258 194.695 68.1022C194.679 67.9652 194.615 67.8397 194.516 67.7483C194.418 67.6569 194.291 67.6059 194.159 67.6049H159.046C158.995 67.6047 158.945 67.6123 158.897 67.6275L158.724 67.7213Z" fill="#426572"/>
<path d="M167.581 77.6495C167.05 77.3153 166.47 77.074 165.864 76.9346C166.173 76.7327 166.428 76.4512 166.603 76.1167C166.778 75.7823 166.869 75.4061 166.866 75.0244C166.862 74.6367 166.763 74.2567 166.577 73.9216C166.391 73.5865 166.125 73.3078 165.806 73.1129C165.487 72.9181 165.124 72.8136 164.755 72.8098C164.385 72.8061 164.021 72.9033 163.698 73.0917C163.375 73.2799 163.104 73.5533 162.913 73.8845C162.721 74.2156 162.614 74.5936 162.603 74.981C162.592 75.3687 162.678 75.7525 162.851 76.0949C163.024 76.4374 163.279 76.7267 163.591 76.9346C162.961 77.0671 162.356 77.3107 161.803 77.6552C161.667 77.7481 161.554 77.8728 161.472 78.0198C161.39 78.1667 161.342 78.3316 161.332 78.5014V81.1829C161.332 81.3321 161.389 81.4752 161.489 81.5809C161.59 81.6865 161.727 81.7458 161.869 81.7458H167.519C167.661 81.7458 167.797 81.6865 167.898 81.5809C167.999 81.4752 168.055 81.3321 168.055 81.1829V78.4977C168.048 78.3266 168.001 78.1599 167.918 78.0121C167.836 77.8642 167.72 77.7398 167.581 77.6495Z" fill="#426572"/>
<path d="M190.12 70.2714H171.287V72.5231H190.12V70.2714Z" fill="#426572"/>
<path d="M183.394 74.2232H171.287V76.4749H183.394V74.2232Z" fill="#426572"/>
<path d="M189.852 81.986H171.287V84.2377H189.852V81.986Z" fill="#426572"/>
<path d="M112.786 138.743C112.786 138.743 141.412 123.731 141.412 101.201V71.1646L112.786 63.6588L84.1591 71.1646V101.199C84.1591 123.726 112.786 138.743 112.786 138.743Z" fill="#E8837E"/>
<path d="M118.461 135.977C116.621 137.25 114.722 138.424 112.768 139.493C112.768 139.493 84.1415 124.482 84.1415 101.949V71.9151L90.4013 70.2732V95.7347C90.4013 115.362 109.313 130.038 118.461 135.977Z" fill="#D66765"/>
<path d="M112.213 140L111.734 139.749C111.437 139.593 104.371 135.855 97.1936 129.265C92.9567 125.375 89.5764 121.303 87.1459 117.158C84.0714 111.917 82.5137 106.549 82.5137 101.208V70.2864L112.213 62.4954L112.474 62.563L141.913 70.2845V101.199C141.913 106.549 140.355 111.917 137.281 117.149C134.85 121.294 131.47 125.366 127.233 129.255C120.056 135.846 112.99 139.576 112.693 139.739L112.213 140ZM84.6599 72.0446V101.199C84.6599 106.125 86.1103 111.097 88.9737 115.978C91.2987 119.93 94.5323 123.831 98.6065 127.57C102.789 131.376 107.351 134.696 112.213 137.472C117.089 134.687 121.663 131.356 125.856 127.539C129.921 123.801 133.155 119.905 135.466 115.965C138.327 111.086 139.758 106.126 139.758 101.208V72.0446L112.213 64.8166L84.6599 72.0446Z" fill="#426572"/>
<path d="M95.5843 112.737L107.954 123.12L109.71 124.594C110.679 125.409 111.598 125.857 112.865 125.679C113.429 125.608 113.969 125.401 114.445 125.076C114.921 124.751 115.319 124.315 115.608 123.803L129.147 100.578L131.079 97.2659C132.105 95.5058 131.501 92.8544 129.732 91.8749C127.902 90.8597 125.688 91.4095 124.594 93.2878L111.055 116.511L109.123 119.823L115.025 119.025L102.66 108.647L100.903 107.172C99.3723 105.886 97.067 105.483 95.5915 107.172C94.3395 108.601 93.9532 111.369 95.5915 112.745L95.5843 112.737Z" fill="white"/>
<path opacity="0.2" d="M63.6705 64.7377C64.9204 62.276 65.6879 59.5766 65.9274 56.7987C66.167 54.0206 65.8737 51.2206 65.0651 48.5634C64.2564 45.9063 62.9486 43.4461 61.219 41.3278C59.4893 39.2097 57.3728 37.4764 54.9943 36.2303C52.6158 34.9841 50.0236 34.2504 47.3705 34.0725C44.7173 33.8946 42.0571 34.2761 39.5468 35.1943C37.0364 36.1126 34.7269 37.5492 32.7542 39.4191C30.7817 41.2891 29.186 43.5546 28.0616 46.0821C26.5087 49.1417 25.7058 52.5585 25.7253 56.0247C25.7448 59.491 26.5861 62.8977 28.1734 65.9377C29.7607 68.9777 32.044 71.5556 34.8176 73.439C37.5912 75.3224 40.7679 76.4522 44.0614 76.7263C43.4866 76.8689 42.903 76.9845 42.3105 77.0735C45.4282 77.545 48.6081 77.2337 51.5888 76.1651C54.5695 75.0964 57.2661 73.3011 59.4568 70.9262C61.2097 69.1506 62.6378 67.0531 63.6705 64.7377Z" fill="#606060"/>
<path d="M43.4176 71.8495C54.4113 71.8495 63.3235 62.499 63.3235 50.9647C63.3235 39.4303 54.4113 30.0798 43.4176 30.0798C32.4239 30.0798 23.5117 39.4303 23.5117 50.9647C23.5117 62.499 32.4239 71.8495 43.4176 71.8495Z" fill="#A8EF9E"/>
<path d="M62.3735 52.4564C62.3729 55.4507 61.7586 58.41 60.5724 61.1335C59.3863 63.8569 57.6558 66.2809 55.4983 68.2412C53.3409 70.2014 50.8069 71.6521 48.0684 72.4948C45.3297 73.3375 42.4504 73.5525 39.6256 73.1254C44.3623 72.407 48.6937 69.9222 51.8266 66.1259C54.9593 62.3299 56.6836 57.4767 56.6836 52.4555C56.6836 47.4341 54.9593 42.5809 51.8266 38.7848C48.6937 34.9886 44.3623 32.5038 39.6256 31.7855C42.4507 31.3579 45.3304 31.5727 48.0693 32.4154C50.8084 33.2582 53.3427 34.709 55.5003 36.6695C57.6579 38.63 59.3885 41.0544 60.5746 43.7782C61.7609 46.5021 62.3749 49.4616 62.3752 52.4564H62.3735Z" fill="#A7E59C"/>
<path d="M42.9436 73.968C38.7941 73.9683 34.7378 72.6777 31.2877 70.2592C27.8373 67.8408 25.1481 64.4032 23.5601 60.3812C21.9719 56.3592 21.5565 51.9335 22.3658 47.6636C23.1752 43.3938 25.1733 39.4718 28.1074 36.3933C31.0416 33.315 34.7797 31.2186 38.8494 30.3694C42.9191 29.5203 47.1374 29.9562 50.9709 31.6225C54.8043 33.2885 58.0809 36.11 60.3859 39.73C62.6911 43.3498 63.9212 47.6056 63.9208 51.9592C63.9142 57.7941 61.702 63.388 57.7693 67.5141C53.8368 71.64 48.5051 73.961 42.9436 73.968ZM42.9436 32.2002C39.2187 32.1998 35.5774 33.3584 32.4802 35.5292C29.3829 37.7003 26.9688 40.7861 25.543 44.3963C24.1174 48.0068 23.7442 51.9798 24.4706 55.8128C25.1971 59.6458 26.9906 63.1666 29.6244 65.9302C32.2581 68.6937 35.6138 70.5757 39.267 71.3383C42.9204 72.1009 46.707 71.7097 50.1484 70.2141C53.5898 68.7188 56.5311 66.1862 58.6006 62.9367C60.6701 59.6875 61.7746 55.8672 61.7746 51.9592C61.7694 46.7207 59.7839 41.6984 56.2536 37.9941C52.7231 34.2898 47.9364 32.2062 42.9436 32.2002Z" fill="#426572"/>
<path d="M123.817 43.153H119.793V45.4047H123.817V43.153Z" fill="#426572"/>
<path d="M117.198 43.153H106.349V45.4047H117.198V43.153Z" fill="#426572"/>
<path d="M50.7683 63.3754C44.9271 64.2442 37.7266 61.9963 37.7266 61.9963L34.1765 62.7374C34.0207 62.7688 33.8604 62.763 33.7072 62.7204C33.5541 62.6778 33.4119 62.5995 33.2915 62.4913C33.1713 62.383 33.0758 62.2477 33.0122 62.0953C32.9487 61.9432 32.9186 61.7776 32.9245 61.6116C32.9962 58.9478 32.9311 56.2817 32.7296 53.6254C32.7115 53.4335 32.7421 53.2398 32.8177 53.0642C32.8936 52.8884 33.012 52.7366 33.1611 52.624C33.3103 52.5114 33.485 52.4418 33.668 52.4223C33.8508 52.4028 34.0353 52.4339 34.2033 52.5127C35.0031 52.9268 35.8796 53.1522 36.7716 53.1732C38.9267 53.1545 40.8082 51.4206 41.7704 49.3622C42.7326 47.3037 42.9508 45.9696 43.1529 43.6803C43.2405 42.6802 43.38 41.5712 44.1044 40.9294C45.3563 39.8167 47.4167 41.1171 47.8226 42.7965C48.2286 44.4759 47.5741 45.2227 47.0214 46.8552C46.6637 47.9211 46.7424 47.9811 46.4527 49.0788C46.4156 49.168 46.3976 49.2642 46.3994 49.3614C46.4013 49.4586 46.423 49.5541 46.4634 49.6418C46.5153 49.7027 46.5784 49.7519 46.6492 49.7861C46.72 49.8204 46.7968 49.8388 46.8748 49.8407C48.0444 49.9983 48.8117 50.4561 49.9831 50.5912C50.5215 50.6524 51.033 50.8697 51.4604 51.2185C51.8877 51.5675 52.2141 52.0344 52.403 52.5671V61.7786C52.4048 61.9983 52.3631 62.216 52.2805 62.4181C52.198 62.62 52.0764 62.8018 51.9233 62.9519C51.7704 63.102 51.5894 63.2173 51.3918 63.2901C51.1941 63.3629 50.9842 63.392 50.7754 63.3754H50.7683Z" fill="#85D175"/>
<defs>
<linearGradient id="paint0_linear_16_312" x1="0.236193" y1="69.6521" x2="224.384" y2="69.6521" gradientUnits="userSpaceOnUse">
<stop stop-color="#C5E9FA"/>
<stop offset="1" stop-color="#C4F4EA"/>
</linearGradient>
</defs>
</svg>
