<svg width="230" height="140" viewBox="0 0 230 140" fill="none" xmlns="http://www.w3.org/2000/svg">
<path d="M217.87 84.6739C209.742 106.843 194.459 126.266 173.232 134.802C170.471 135.911 167.652 136.851 164.788 137.619C149.643 141.686 133.075 140.271 119.114 132.86C113.188 129.712 107.785 125.552 101.839 122.45C95.892 119.347 89.1011 117.316 82.6285 118.848C77.0556 120.166 72.3536 123.945 67.6195 127.312C56.4593 135.249 43.0402 141.53 29.8251 138.804C23.7442 137.551 17.7563 134.081 14.9323 128.28C8.69042 115.457 20.4623 100.21 18.0783 86.0284C16.5526 76.9518 9.58467 70.1547 5.25294 62.1444C-2.16036 48.4428 -1.28399 30.2426 7.40807 17.4038C16.1001 4.56509 32.1465 -2.24518 46.8587 0.66731C64.799 4.22034 78.3629 20.2127 95.8079 25.8719C106.718 29.408 118.563 28.353 128.983 23.696C145.818 16.1699 168.946 4.62726 187.892 6.50738C197.966 7.50773 207.848 12.2175 214.497 20.2598C222.903 30.4121 225.423 44.8258 224.021 58.2127C223.059 67.2748 220.991 76.1685 217.87 84.6739Z" fill="url(#paint0_linear_16_405)"/>
<path d="M223.279 102.209C222.905 102.209 222.533 102.161 222.17 102.068C221.022 101.771 220.026 101.023 219.384 99.9778C218.741 98.9326 218.502 97.6687 218.715 96.4438C218.926 95.2191 219.575 94.1259 220.526 93.3876C221.478 92.6491 222.662 92.3213 223.835 92.4707C225.008 92.6203 226.083 93.2359 226.84 94.1922C227.598 95.1483 227.979 96.3726 227.909 97.6154C227.838 98.8582 227.319 100.026 226.459 100.879C225.599 101.733 224.461 102.209 223.279 102.209ZM223.279 94.6396C222.664 94.6421 222.072 94.8813 221.612 95.3122C221.152 95.743 220.859 96.3357 220.786 96.9789C220.714 97.622 220.866 98.271 221.217 98.8038C221.566 99.3364 222.088 99.7162 222.685 99.8712C223.03 99.9586 223.39 99.968 223.74 99.8989C224.089 99.8296 224.42 99.6832 224.711 99.4694C225.003 99.2555 225.25 98.979 225.432 98.658C225.615 98.337 225.733 97.9788 225.774 97.607C225.817 97.2353 225.783 96.8581 225.677 96.5007C225.572 96.1434 225.395 95.8137 225.159 95.5333C224.923 95.253 224.635 95.0285 224.309 94.8744C223.985 94.7204 223.635 94.6404 223.279 94.6396Z" fill="#E7F6FF"/>
<path d="M219.046 107.392C219.308 106.246 218.641 105.092 217.554 104.814C216.465 104.537 215.37 105.24 215.105 106.386C214.843 107.531 215.51 108.685 216.599 108.963C217.686 109.241 218.781 108.537 219.046 107.392Z" fill="#E7F6FF"/>
<path d="M9.871 101.744C8.64258 101.715 7.47432 101.178 6.61983 100.248C5.76536 99.3179 5.29363 98.0704 5.30704 96.7761C5.32047 95.4819 5.81796 94.2455 6.69153 93.3354C7.5651 92.4253 8.74422 91.9148 9.97295 91.9148C11.2017 91.9148 12.3808 92.4253 13.2543 93.3354C14.1279 94.2455 14.6254 95.4819 14.6388 96.7761C14.6523 98.0704 14.1805 99.3179 13.326 100.248C12.4716 101.178 11.3033 101.715 10.0749 101.744H9.871ZM9.871 94.1762H9.76548C9.10202 94.1913 8.47101 94.4814 8.00943 94.9836C7.54786 95.4859 7.293 96.1597 7.30019 96.8587C7.30738 97.5576 7.57601 98.2254 8.0478 98.7169C8.51958 99.2086 9.15641 99.4842 9.82003 99.4842C10.4837 99.4842 11.1205 99.2086 11.5922 98.7169C12.064 98.2254 12.3327 97.5576 12.3399 96.8587C12.347 96.1597 12.0922 95.4859 11.6306 94.9836C11.1691 94.4814 10.538 94.1913 9.87458 94.1762H9.871Z" fill="#E7F6FF"/>
<path d="M6.54391 109.992C7.662 109.941 8.52929 108.945 8.48106 107.768C8.43282 106.59 7.48734 105.676 6.36924 105.727C5.25117 105.778 4.38387 106.774 4.43209 107.951C4.48033 109.129 5.42581 110.043 6.54391 109.992Z" fill="#E7F6FF"/>
<path d="M126.818 22.2794C125.705 22.2803 124.628 21.8615 123.782 21.0985C122.936 20.3356 122.378 19.2789 122.208 18.1197C122.038 16.9606 122.267 15.7757 122.855 14.7794C123.442 13.7831 124.349 13.0413 125.411 12.6882C126.473 12.3351 127.62 12.3941 128.644 12.8545C129.668 13.3149 130.502 14.1463 130.994 15.1981C131.487 16.25 131.605 17.4529 131.329 18.589C131.052 19.7252 130.399 20.7195 129.487 21.392C128.704 21.9685 127.773 22.2782 126.818 22.2794ZM126.804 14.7136C126.152 14.7129 125.526 14.977 125.055 15.451C124.583 15.925 124.304 16.5722 124.275 17.2577C124.246 17.9433 124.469 18.6143 124.897 19.131C125.326 19.6476 125.928 19.9699 126.577 20.0307C127.226 20.0916 127.872 19.8862 128.381 19.4577C128.89 19.0291 129.222 18.4102 129.308 17.7299C129.394 17.0497 129.228 16.3607 128.844 15.8065C128.459 15.2523 127.887 14.8756 127.246 14.755C127.1 14.7276 126.952 14.7138 126.804 14.7136Z" fill="#E7F6FF"/>
<path d="M117.304 22.0107C118.221 21.3338 118.443 20.0029 117.8 19.0376C117.158 18.0725 115.894 17.8387 114.978 18.5155C114.061 19.1924 113.839 20.5234 114.482 21.4887C115.124 22.4538 116.388 22.6876 117.304 22.0107Z" fill="#E7F6FF"/>
<path d="M230 47.5988C230 45.5273 229.218 43.5406 227.829 42.0758C226.437 40.6111 224.552 39.7882 222.585 39.7882C222.42 39.7882 222.258 39.7882 222.097 39.8052C222.107 39.6356 222.113 39.4642 222.113 39.2909C222.113 38.1807 221.887 37.0835 221.453 36.0721C221.018 35.0608 220.385 34.1586 219.593 33.4258C218.8 32.6927 217.87 32.146 216.862 31.822C215.855 31.498 214.792 31.404 213.748 31.5462C212.702 31.6884 211.698 32.0637 210.801 32.6472C209.905 33.2304 209.135 34.0085 208.547 34.9293C207.959 35.85 207.563 36.8923 207.386 37.9869C207.211 39.0814 207.258 40.2029 207.526 41.2765C206.63 40.5919 205.6 40.1273 204.51 39.9169C203.421 39.7067 202.302 39.7556 201.234 40.0606C200.164 40.3656 199.175 40.9188 198.335 41.6795C197.496 42.44 196.829 43.3889 196.384 44.4565C195.938 45.5239 195.725 46.6831 195.761 47.8485C195.797 49.014 196.079 50.1564 196.587 51.1918C197.097 52.2272 197.82 53.1294 198.703 53.8323C199.587 54.535 200.608 55.0204 201.694 55.2531C202.137 56.4904 202.87 57.5889 203.827 58.4459C204.782 59.3029 205.929 59.8901 207.159 60.1525C208.39 60.415 209.663 60.3441 210.861 59.9464C212.058 59.5487 213.14 58.8376 214.006 57.8792C214.891 58.5829 215.914 59.0685 217.001 59.3004C218.089 59.5322 219.21 59.5043 220.285 59.2187C221.362 58.9331 222.361 58.3971 223.214 57.6502C224.068 56.9032 224.749 55.9643 225.212 54.9027C226.62 54.3407 227.831 53.3411 228.685 52.0365C229.542 50.7319 230 49.1841 230 47.5988Z" fill="white"/>
<path d="M34.2407 28.824C34.2417 27.7978 34.0506 26.7815 33.6785 25.8331C33.3064 24.8848 32.7605 24.0229 32.0721 23.2968C31.3836 22.5708 30.566 21.9947 29.6661 21.6015C28.7663 21.2085 27.8016 21.006 26.8274 21.0058C26.6628 21.0058 26.5001 21.0058 26.3391 21.0228C26.3498 20.8532 26.3552 20.6818 26.3552 20.5085C26.355 19.3983 26.1302 18.301 25.6956 17.2897C25.2612 16.2783 24.627 15.3761 23.8354 14.6433C23.0438 13.9104 22.1129 13.3637 21.1049 13.0396C20.0969 12.7155 19.0351 12.6215 17.9899 12.7637C16.9446 12.906 15.9402 13.2814 15.0436 13.8647C14.1469 14.4481 13.3786 15.226 12.7899 16.1468C12.2012 17.0675 11.8056 18.1099 11.6294 19.2045C11.4532 20.2988 11.5006 21.4203 11.7683 22.4941C10.8721 21.8095 9.8418 21.3449 8.75293 21.1345C7.66406 20.9241 6.54429 20.9732 5.47579 21.2783C4.40727 21.5833 3.41716 22.1364 2.57807 22.8969C1.73901 23.6576 1.07228 24.6065 0.626814 25.6741C0.181351 26.7415 -0.0315366 27.9007 0.00377314 29.0661C0.0390828 30.2316 0.321694 31.374 0.830867 32.4094C1.34004 33.4448 2.06285 34.347 2.94625 35.0499C3.82968 35.7526 4.85126 36.238 5.93606 36.4707C6.37937 37.7069 7.11322 38.8045 8.0689 39.6605C9.02458 40.5166 10.1709 41.1034 11.4004 41.3656C12.63 41.628 13.9027 41.5576 15.0994 41.1607C16.296 40.7639 17.3775 40.0539 18.2426 39.0969C19.1277 39.8005 20.1515 40.2862 21.2383 40.5181C22.3252 40.7498 23.4477 40.7219 24.5229 40.4363C25.5981 40.1507 26.599 39.6147 27.4516 38.8678C28.3041 38.1208 28.9868 37.1819 29.4493 36.1203C30.8561 35.5593 32.0678 34.561 32.9236 33.2579C33.7794 31.9548 34.2387 30.4083 34.2407 28.824Z" fill="white"/>
<path d="M170.654 139.96H63.9707V137.511H170.654C170.963 137.511 171.258 137.64 171.476 137.87C171.694 138.099 171.817 138.411 171.817 138.736C171.817 139.061 171.694 139.372 171.476 139.602C171.258 139.831 170.963 139.96 170.654 139.96Z" fill="#426572"/>
<path d="M59.1993 139.96H52.6766C52.3683 139.96 52.0726 139.831 51.8546 139.602C51.6366 139.372 51.5141 139.061 51.5141 138.736C51.5141 138.411 51.6366 138.099 51.8546 137.87C52.0726 137.64 52.3683 137.511 52.6766 137.511H59.1993C59.5076 137.511 59.8032 137.64 60.0213 137.87C60.2393 138.099 60.3618 138.411 60.3618 138.736C60.3618 139.061 60.2393 139.372 60.0213 139.602C59.8032 139.831 59.5076 139.96 59.1993 139.96Z" fill="#426572"/>
<path d="M48.4434 139.96H46.3652C46.0568 139.96 45.7612 139.831 45.5432 139.602C45.3251 139.372 45.2026 139.061 45.2026 138.736C45.2026 138.411 45.3251 138.099 45.5432 137.87C45.7612 137.64 46.0568 137.511 46.3652 137.511H48.4434C48.7517 137.511 49.0474 137.64 49.2654 137.87C49.4834 138.099 49.6059 138.411 49.6059 138.736C49.6059 139.061 49.4834 139.372 49.2654 139.602C49.0474 139.831 48.7517 139.96 48.4434 139.96Z" fill="#426572"/>
<path d="M208.062 139.96H175.272V137.511H208.062C208.37 137.511 208.667 137.64 208.885 137.87C209.103 138.099 209.225 138.411 209.225 138.736C209.225 139.061 209.103 139.372 208.885 139.602C208.667 139.831 208.37 139.96 208.062 139.96Z" fill="#426572"/>
<path d="M40.4196 139.96H7.62762V137.511H40.4196C40.7279 137.511 41.0237 137.64 41.2417 137.87C41.4597 138.099 41.5821 138.411 41.5821 138.736C41.5821 139.061 41.4597 139.372 41.2417 139.602C41.0237 139.831 40.7279 139.96 40.4196 139.96Z" fill="#426572"/>
<path d="M127.341 32.9346V138.87H18.3928V32.9346C18.3946 32.3612 18.6117 31.8117 18.9968 31.4062C19.3817 31.0006 19.9034 30.7719 20.4478 30.7701H125.284C125.407 30.7701 125.531 30.7819 125.652 30.8058C126.125 30.8976 126.553 31.1606 126.861 31.5492C127.169 31.9381 127.339 32.4281 127.341 32.9346Z" fill="white"/>
<path d="M20.1066 41.2351H127.682V33.6241L125.626 30.7701H31.4134H20.4499L18.7366 33.6241V41.2351H20.1066Z" fill="#E2F2FF"/>
<path d="M128.756 140H17.6635V32.9346C17.6644 32.0611 17.9942 31.2235 18.5806 30.6058C19.1671 29.988 19.9623 29.6407 20.7916 29.6397H125.626C126.455 29.6407 127.25 29.988 127.837 30.6058C128.423 31.2235 128.753 32.0611 128.754 32.9346L128.756 140ZM19.8097 137.739H126.609V32.9346C126.609 32.6604 126.505 32.3975 126.321 32.2037C126.137 32.0098 125.888 31.9008 125.628 31.9004H20.7916C20.5312 31.9008 20.2819 32.0098 20.0978 32.2037C19.9138 32.3975 19.8101 32.6604 19.8097 32.9346V137.739Z" fill="#426572"/>
<path d="M24.9927 37.8516C25.7494 37.8516 26.3627 37.2055 26.3627 36.4086C26.3627 35.6115 25.7494 34.9655 24.9927 34.9655C24.2362 34.9655 23.6227 35.6115 23.6227 36.4086C23.6227 37.2055 24.2362 37.8516 24.9927 37.8516Z" fill="#CADCE8"/>
<path d="M29.1021 37.8516C29.8586 37.8516 30.4721 37.2055 30.4721 36.4086C30.4721 35.6115 29.8586 34.9655 29.1021 34.9655C28.3454 34.9655 27.7321 35.6115 27.7321 36.4086C27.7321 37.2055 28.3454 37.8516 29.1021 37.8516Z" fill="#CADCE8"/>
<path d="M33.2143 37.8516C33.9708 37.8516 34.5843 37.2055 34.5843 36.4086C34.5843 35.6115 33.9708 34.9655 33.2143 34.9655C32.4576 34.9655 31.8443 35.6115 31.8443 36.4086C31.8443 37.2055 32.4576 37.8516 33.2143 37.8516Z" fill="#CADCE8"/>
<path d="M122.326 34.9636H39.0016C38.3596 34.9636 37.8391 35.5118 37.8391 36.1881V36.6252C37.8391 37.3015 38.3596 37.8497 39.0016 37.8497H122.326C122.968 37.8497 123.488 37.3015 123.488 36.6252V36.1881C123.488 35.5118 122.968 34.9636 122.326 34.9636Z" fill="#CADCE8"/>
<path d="M199.798 12.3644V138.87H90.8553V12.3644C90.8573 11.7909 91.0743 11.2415 91.4593 10.836C91.8442 10.4305 92.3659 10.2018 92.9103 10.1998H197.745C197.868 10.1998 197.991 10.2118 198.113 10.2356C198.585 10.3282 199.013 10.5915 199.32 10.9802C199.628 11.3688 199.796 11.8584 199.798 12.3644Z" fill="white"/>
<path d="M92.5648 20.6649H200.141V13.0539L198.084 10.1998H103.872H94.6216L91.1948 13.0539V20.6649H92.5648Z" fill="#E2F2FF"/>
<path d="M201.205 140H90.1217V12.3644C90.1228 11.4908 90.4526 10.6533 91.039 10.0356C91.6255 9.41791 92.4205 9.07044 93.2498 9.06944H198.084C198.912 9.07244 199.705 9.42079 200.29 10.0383C200.874 10.6558 201.203 11.4921 201.205 12.3644V140ZM92.259 137.739H199.059V12.3644C199.059 12.0902 198.955 11.8275 198.771 11.6336C198.587 11.4398 198.337 11.3306 198.077 11.3301H93.2498C92.9895 11.3306 92.74 11.4398 92.556 11.6336C92.372 11.8275 92.2684 12.0902 92.2679 12.3644L92.259 137.739Z" fill="#426572"/>
<path d="M97.4512 17.2813C98.2077 17.2813 98.8211 16.6353 98.8211 15.8383C98.8211 15.0413 98.2077 14.3952 97.4512 14.3952C96.6945 14.3952 96.0812 15.0413 96.0812 15.8383C96.0812 16.6353 96.6945 17.2813 97.4512 17.2813Z" fill="#CADCE8"/>
<path d="M101.561 17.2813C102.318 17.2813 102.931 16.6353 102.931 15.8383C102.931 15.0413 102.318 14.3952 101.561 14.3952C100.805 14.3952 100.191 15.0413 100.191 15.8383C100.191 16.6353 100.805 17.2813 101.561 17.2813Z" fill="#CADCE8"/>
<path d="M105.673 17.2813C106.43 17.2813 107.043 16.6353 107.043 15.8383C107.043 15.0413 106.43 14.3952 105.673 14.3952C104.917 14.3952 104.303 15.0413 104.303 15.8383C104.303 16.6353 104.917 17.2813 105.673 17.2813Z" fill="#CADCE8"/>
<path d="M194.785 14.3952H111.461C110.819 14.3952 110.298 14.9435 110.298 15.6198V16.0568C110.298 16.7331 110.819 17.2813 111.461 17.2813H194.785C195.427 17.2813 195.947 16.7331 195.947 16.0568V15.6198C195.947 14.9435 195.427 14.3952 194.785 14.3952Z" fill="#CADCE8"/>
<path d="M126.72 34.2176H104.319V61.1026H126.72V34.2176Z" fill="#E8837E"/>
<path d="M181.949 34.2176H128.834V61.1026H181.949V34.2176Z" fill="#E8837E"/>
<path d="M181.949 64.0791H156.87V90.9642H181.949V64.0791Z" fill="#DDE4ED"/>
<path d="M154.756 64.0791H104.602V90.9642H154.756V64.0791Z" fill="#DDE4ED"/>
<path d="M182.09 93.9407H104.602V120.826H182.09V93.9407Z" fill="#DDE4ED"/>
<path d="M46.7317 99.8561H29.2921V101.74H46.7317V99.8561Z" fill="#DDE4ED"/>
<path d="M46.7317 104.909H29.2921V106.793H46.7317V104.909Z" fill="#DDE4ED"/>
<path d="M46.7317 109.959H29.2921V111.843H46.7317V109.959Z" fill="#DDE4ED"/>
<path d="M46.7317 115.012H29.2921V116.896H46.7317V115.012Z" fill="#DDE4ED"/>
<path d="M46.7317 120.065H29.2921V121.949H46.7317V120.065Z" fill="#DDE4ED"/>
<path d="M46.7317 125.117H29.2921V127.001H46.7317V125.117Z" fill="#DDE4ED"/>
<path d="M38.3295 86.3298L41.7777 80.1017L47.12 84.8227V89.1349H32.2969L35.9168 83.8694L38.3295 86.3298Z" fill="#DDE4ED"/>
<path d="M53.9425 83.3891H48.772V76.7615L49.8057 75.7178L53.9425 80.1657V83.3891Z" fill="#DDE4ED"/>
<path d="M34.7434 82.8465C35.3022 82.8461 35.8482 82.6711 36.3125 82.3439C36.7768 82.0164 37.1384 81.5515 37.3518 81.0074C37.5649 80.4635 37.6204 79.8652 37.5108 79.2882C37.4011 78.7112 37.1316 78.1812 36.736 77.7656C36.3404 77.35 35.8367 77.0675 35.2886 76.9535C34.7406 76.8395 34.1725 76.8992 33.6567 77.1253C33.1409 77.3514 32.7004 77.7336 32.3908 78.2234C32.0813 78.7132 31.9165 79.2889 31.9176 79.8775C31.9214 80.6649 32.2206 81.4189 32.7498 81.975C33.2792 82.5313 33.9958 82.8444 34.7434 82.8465Z" fill="#DDE4ED"/>
<path opacity="0.2" d="M160.058 59.5427V137.427H51.1119V59.5427C51.1053 58.9604 51.3176 58.3988 51.7026 57.981C52.0877 57.5629 52.6141 57.3226 53.1669 57.3122H158.001C158.554 57.322 159.081 57.5624 159.467 57.9802C159.852 58.3983 160.065 58.96 160.058 59.5427Z" fill="#606060"/>
<path d="M156.117 63.2484V138.87H47.1714V63.2484C47.1734 62.6749 47.3904 62.1254 47.7754 61.72C48.1603 61.3144 48.682 61.0856 49.2264 61.0838H154.061C154.184 61.0838 154.308 61.0958 154.429 61.1196C154.902 61.2113 155.33 61.4743 155.638 61.8631C155.946 62.2518 156.116 62.7418 156.117 63.2484Z" fill="white"/>
<path d="M48.8852 71.5469H156.459V63.936L154.404 61.0819H60.1902H48.3719L47.5152 63.936V71.5469H48.8852Z" fill="#E2F2FF"/>
<path d="M53.7692 67.8036C54.5259 67.8036 55.1392 67.1574 55.1392 66.3606C55.1392 65.5635 54.5259 64.9175 53.7692 64.9175C53.0127 64.9175 52.3992 65.5635 52.3992 66.3606C52.3992 67.1574 53.0127 67.8036 53.7692 67.8036Z" fill="#CADCE8"/>
<path d="M57.8807 67.8036C58.6373 67.8036 59.2507 67.1574 59.2507 66.3606C59.2507 65.5635 58.6373 64.9175 57.8807 64.9175C57.124 64.9175 56.5107 65.5635 56.5107 66.3606C56.5107 67.1574 57.124 67.8036 57.8807 67.8036Z" fill="#CADCE8"/>
<path d="M61.9929 67.8036C62.7494 67.8036 63.3629 67.1574 63.3629 66.3606C63.3629 65.5635 62.7494 64.9175 61.9929 64.9175C61.2362 64.9175 60.6229 65.5635 60.6229 66.3606C60.6229 67.1574 61.2362 67.8036 61.9929 67.8036Z" fill="#CADCE8"/>
<path d="M151.104 64.9175H67.7803C67.1384 64.9175 66.6177 65.4657 66.6177 66.142V66.5791C66.6177 67.2554 67.1384 67.8036 67.7803 67.8036H151.104C151.746 67.8036 152.267 67.2554 152.267 66.5791V66.142C152.267 65.4657 151.746 64.9175 151.104 64.9175Z" fill="#CADCE8"/>
<path d="M78.3683 119.744C81.0095 119.744 83.1507 117.489 83.1507 114.707C83.1507 111.925 81.0095 109.669 78.3683 109.669C75.7271 109.669 73.5859 111.925 73.5859 114.707C73.5859 117.489 75.7271 119.744 78.3683 119.744Z" fill="#DDE4ED"/>
<path d="M101.86 119.744C104.501 119.744 106.642 117.489 106.642 114.707C106.642 111.925 104.501 109.669 101.86 109.669C99.2185 109.669 97.0773 111.925 97.0773 114.707C97.0773 117.489 99.2185 119.744 101.86 119.744Z" fill="#DDE4ED"/>
<path d="M125.352 119.744C127.993 119.744 130.134 117.489 130.134 114.707C130.134 111.925 127.993 109.669 125.352 109.669C122.711 109.669 120.57 111.925 120.57 114.707C120.57 117.489 122.711 119.744 125.352 119.744Z" fill="#DDE4ED"/>
<path d="M140.227 81.1302H63.495C62.3096 81.1302 61.3488 82.1422 61.3488 83.3909V101.966C61.3488 103.215 62.3096 104.227 63.495 104.227H140.227C141.412 104.227 142.373 103.215 142.373 101.966V83.3909C142.373 82.1422 141.412 81.1302 140.227 81.1302Z" fill="#A8EF9E"/>
<path d="M100.723 125.831H62.009V128.092H100.723V125.831Z" fill="#E8EDF7"/>
<path d="M124.191 130.341H61.8392V132.602H124.191V130.341Z" fill="#E8EDF7"/>
<path d="M143.205 125.831H106.204V128.092H143.205V125.831Z" fill="#E8EDF7"/>
<path opacity="0.3" d="M49.9667 138.689H48.3571V72.3438H156.051V74.0393H49.9667V138.689Z" fill="#C1CEDE"/>
<path d="M156.136 70.4166H47.6368V72.6772H156.136V70.4166Z" fill="#426572"/>
<path d="M157.532 140H46.4421V63.2483C46.443 62.3748 46.773 61.5372 47.3593 60.9195C47.9457 60.3017 48.7409 59.9543 49.5702 59.9534H154.404C155.234 59.9543 156.029 60.3017 156.615 60.9195C157.202 61.5372 157.532 62.3748 157.532 63.2483V140ZM48.5865 137.739H155.386V63.2483C155.386 62.9742 155.282 62.7114 155.098 62.5176C154.914 62.3237 154.665 62.2145 154.404 62.2141H49.5702C49.31 62.2145 49.0605 62.3237 48.8765 62.5176C48.6924 62.7114 48.5889 62.9742 48.5883 63.2483L48.5865 137.739Z" fill="#426572"/>
<path d="M185 125.125H165.129V126.632H185V125.125Z" fill="#DDE4ED"/>
<defs>
<linearGradient id="paint0_linear_16_405" x1="0.236223" y1="69.9286" x2="224.384" y2="69.9286" gradientUnits="userSpaceOnUse">
<stop stop-color="#C5E9FA"/>
<stop offset="1" stop-color="#C4F4EA"/>
</linearGradient>
</defs>
</svg>
