<svg width="55" height="92" viewBox="0 0 55 92" fill="none" xmlns="http://www.w3.org/2000/svg">
<path d="M44.5833 0.166656H11.25C8.48731 0.166656 5.83779 1.26412 3.88428 3.21763C1.93078 5.17113 0.833313 7.82065 0.833313 10.5833V81.4167C0.833313 84.1793 1.93078 86.8288 3.88428 88.7823C5.83779 90.7359 8.48731 91.8333 11.25 91.8333H44.5833C47.346 91.8333 49.9955 90.7359 51.949 88.7823C53.9025 86.8288 55 84.1793 55 81.4167V10.5833C55 7.82065 53.9025 5.17113 51.949 3.21763C49.9955 1.26412 47.346 0.166656 44.5833 0.166656V0.166656ZM27.9166 87.6667C24.4583 87.6667 21.6666 84.875 21.6666 81.4167C21.6666 77.9583 24.4583 75.1667 27.9166 75.1667C31.375 75.1667 34.1666 77.9583 34.1666 81.4167C34.1666 84.875 31.375 87.6667 27.9166 87.6667ZM46.6666 71H9.16665V12.6667H46.6666V71Z" fill="white"/>
</svg>
