<svg width="125" height="127" viewBox="0 0 125 127" fill="none" xmlns="http://www.w3.org/2000/svg">
<path d="M62.5566 10.5759C51.5159 10.5759 40.9274 15.0328 33.1205 22.9662C25.3135 30.8997 20.9276 41.6597 20.9276 52.8793C20.9276 62.884 23.0195 69.4305 28.7331 76.675L62.5566 116.334L96.3801 76.675C102.094 69.4305 104.186 62.884 104.186 52.8793C104.186 41.6597 99.7997 30.8997 91.9927 22.9662C84.1858 15.0328 73.5973 10.5759 62.5566 10.5759V10.5759Z" stroke="white" stroke-width="8.33333" stroke-linecap="round" stroke-linejoin="round"/>
<path d="M62.5566 68.7431C71.1782 68.7431 78.1675 61.6406 78.1675 52.8793C78.1675 44.118 71.1782 37.0155 62.5566 37.0155C53.935 37.0155 46.9457 44.118 46.9457 52.8793C46.9457 61.6406 53.935 68.7431 62.5566 68.7431Z" stroke="white" stroke-width="8.33333" stroke-linecap="round" stroke-linejoin="round"/>
</svg>
